<svg width="10" height="16" viewBox="0 0 10 16" fill="none" xmlns="http://www.w3.org/2000/svg">
<path d="M1.36328 8.72718C1.36328 7.76276 1.7464 6.83784 2.42835 6.15589C3.1103 5.47394 4.03522 5.09082 4.99964 5.09082C5.96407 5.09082 6.88899 5.47394 7.57094 6.15589C8.25289 6.83784 8.63601 7.76276 8.63601 8.72718V12.3635C8.63601 13.7352 8.63601 14.4203 8.20983 14.8465C7.78364 15.2726 7.09855 15.2726 5.72692 15.2726H4.27237C2.90074 15.2726 2.21564 15.2726 1.78946 14.8465C1.36328 14.4203 1.36328 13.7352 1.36328 12.3635V8.72718Z" stroke="white" stroke-width="1.2" stroke-linecap="round" stroke-linejoin="round"/>
<path d="M3.5451 5.09118V4.3639C3.5451 3.67808 3.5451 3.33554 3.75819 3.12245C3.97128 2.90936 4.31383 2.90936 4.99964 2.90936M4.99964 2.90936C5.68546 2.90936 6.02801 2.90936 6.2411 3.12245C6.45419 3.33554 6.45419 3.67808 6.45419 4.3639V5.09118M4.99964 2.90936V0.727539M4.99964 0.727539H3.5451M4.99964 0.727539H6.99601C7.54667 0.727679 8.07692 0.936036 8.48037 1.31081L8.63601 1.45481M1.36328 8.72754H8.63601" stroke="white" stroke-width="1.2" stroke-linecap="round" stroke-linejoin="round"/>
<rect x="1" y="9" width="8" height="6" rx="1" fill="white"/>
</svg>
